<svg xmlns="http://www.w3.org/2000/svg" width="430" height="932" viewBox="0 0 430 932"><title>00 · Login</title><rect x="0.00" y="0.00" width="430.00" height="932.00" rx="28" fill="#FFFFFF"/><text x="27.00" y="29.88" font-family="Arial, Helvetica, sans-serif" font-size="12" font-weight="600" fill="#26364F" text-anchor="start">9:41</text><rect x="160.00" y="12.00" width="110.00" height="27.00" rx="16" fill="#26364F"/><text x="362.00" y="29.88" font-family="Arial, Helvetica, sans-serif" font-size="12" font-weight="600" fill="#26364F" text-anchor="start">••• ▰</text><g transform="translate(20.00 66.00) scale(1.20833)" fill="#65416F" stroke="#65416F" stroke-width="1.65" stroke-linecap="round" stroke-linejoin="round"><ellipse cx="7" cy="7" rx="2.4" ry="3.1"/><ellipse cx="13" cy="5" rx="2.4" ry="3.1"/><ellipse cx="19" cy="8" rx="2.4" ry="3.1"/><ellipse cx="3" cy="13" rx="2" ry="2.7"/><path d="M7 16c1-6 7-7 10-2 6 8-1 8-5 6-5 3-9 1-5-4Z"/></g><text x="56.00" y="86.73" font-family="Arial, Helvetica, sans-serif" font-size="27" font-weight="700" fill="#26364F" text-anchor="start">Pet</text><text x="97.00" y="86.73" font-family="Arial, Helvetica, sans-serif" font-size="27" font-weight="700" fill="#65416F" text-anchor="start">Zona</text><defs><clipPath id="bodyclip0"><rect x="0.00" y="112.00" width="430.00" height="798.00" rx="0" fill="none"/></clipPath></defs><g clip-path="url(#bodyclip0)"><rect x="20.00" y="128.00" width="390.00" height="180.00" rx="16" fill="#DDEDFA"/><g transform="translate(179.00 168.00) scale(3.00000)" fill="#65416F" stroke="#65416F" stroke-width="1.65" stroke-linecap="round" stroke-linejoin="round"><ellipse cx="7" cy="7" rx="2.4" ry="3.1"/><ellipse cx="13" cy="5" rx="2.4" ry="3.1"/><ellipse cx="19" cy="8" rx="2.4" ry="3.1"/><ellipse cx="3" cy="13" rx="2" ry="2.7"/><path d="M7 16c1-6 7-7 10-2 6 8-1 8-5 6-5 3-9 1-5-4Z"/></g><text x="215.00" y="263.88" font-family="Arial, Helvetica, sans-serif" font-size="12" font-weight="600" fill="#65416F" text-anchor="middle">Mais vida para quem te faz bem.</text><text x="20.00" y="357.70" font-family="Arial, Helvetica, sans-serif" font-size="30" font-weight="700" fill="#26364F" text-anchor="start">O cuidado começa aqui.</text><text x="20.00" y="405.84" font-family="Arial, Helvetica, sans-serif" font-size="16" font-weight="400" fill="#596477" text-anchor="start">Produtos e serviços para uma rotina mais leve com</text><text x="20.00" y="428.24" font-family="Arial, Helvetica, sans-serif" font-size="16" font-weight="400" fill="#596477" text-anchor="start">seu pet.</text><text x="20.00" y="468.66" font-family="Arial, Helvetica, sans-serif" font-size="14" font-weight="600" fill="#26364F" text-anchor="start">E-mail</text><rect x="20.00" y="482.40" width="390.00" height="52.00" rx="12" fill="#FFFFFF" stroke="#CAD2DF"/><text x="34.00" y="512.24" font-family="Arial, Helvetica, sans-serif" font-size="16" font-weight="400" fill="#596477" text-anchor="start">seuemail@exemplo.com</text><text x="20.00" y="568.26" font-family="Arial, Helvetica, sans-serif" font-size="14" font-weight="600" fill="#26364F" text-anchor="start">Senha</text><rect x="20.00" y="582.00" width="390.00" height="52.00" rx="12" fill="#FFFFFF" stroke="#CAD2DF"/><text x="34.00" y="611.84" font-family="Arial, Helvetica, sans-serif" font-size="16" font-weight="400" fill="#596477" text-anchor="start">Digite sua senha</text><rect x="20.00" y="654.00" width="390.00" height="52.00" rx="14" fill="#65416F"/><text x="215.00" y="685.44" font-family="Arial, Helvetica, sans-serif" font-size="16" font-weight="600" fill="#FFFFFF" text-anchor="middle">Entrar</text><rect x="20.00" y="726.00" width="390.00" height="52.00" rx="14" fill="#DFD2EC"/><text x="215.00" y="757.44" font-family="Arial, Helvetica, sans-serif" font-size="16" font-weight="600" fill="#65416F" text-anchor="middle">Explorar sem entrar</text><rect x="20.00" y="798.00" width="390.00" height="60.40" rx="12" fill="#F6F8FC"/><g transform="translate(32.00 818.20) scale(0.83333)" fill="none" stroke="#596D9E" stroke-width="1.65" stroke-linecap="round" stroke-linejoin="round"><circle cx="12" cy="12" r="9"/><path d="M12 11v6m0-10v1"/></g><text x="64.00" y="822.87" font-family="Arial, Helvetica, sans-serif" font-size="13" font-weight="400" fill="#596477" text-anchor="start">Protótipo acadêmico: o acesso é demonstrativo. Não é</text><text x="64.00" y="841.07" font-family="Arial, Helvetica, sans-serif" font-size="13" font-weight="400" fill="#596477" text-anchor="start">necessário informar dados reais.</text></g><rect x="0.00" y="910.00" width="430.00" height="22.00" rx="0" fill="#FFFFFF"/><rect x="149.00" y="919.00" width="132.00" height="4.00" rx="3" fill="#26364F"/></svg>