<svg xmlns="http://www.w3.org/2000/svg" width="430" height="932" viewBox="0 0 430 932"><title>01 · Início</title><rect x="0.00" y="0.00" width="430.00" height="932.00" rx="28" fill="#FFFFFF"/><text x="27.00" y="29.88" font-family="Arial, Helvetica, sans-serif" font-size="12" font-weight="600" fill="#26364F" text-anchor="start">9:41</text><rect x="160.00" y="12.00" width="110.00" height="27.00" rx="16" fill="#26364F"/><text x="362.00" y="29.88" font-family="Arial, Helvetica, sans-serif" font-size="12" font-weight="600" fill="#26364F" text-anchor="start">••• ▰</text><g transform="translate(20.00 66.00) scale(1.20833)" fill="#65416F" stroke="#65416F" stroke-width="1.65" stroke-linecap="round" stroke-linejoin="round"><ellipse cx="7" cy="7" rx="2.4" ry="3.1"/><ellipse cx="13" cy="5" rx="2.4" ry="3.1"/><ellipse cx="19" cy="8" rx="2.4" ry="3.1"/><ellipse cx="3" cy="13" rx="2" ry="2.7"/><path d="M7 16c1-6 7-7 10-2 6 8-1 8-5 6-5 3-9 1-5-4Z"/></g><text x="56.00" y="86.73" font-family="Arial, Helvetica, sans-serif" font-size="27" font-weight="700" fill="#26364F" text-anchor="start">Pet</text><text x="97.00" y="86.73" font-family="Arial, Helvetica, sans-serif" font-size="27" font-weight="700" fill="#65416F" text-anchor="start">Zona</text><rect x="366.00" y="58.00" width="44.00" height="44.00" rx="14" fill="#FFFFFF" stroke="#CAD2DF"/><g transform="translate(377.00 69.00) scale(0.87500)" fill="none" stroke="#65416F" stroke-width="1.65" stroke-linecap="round" stroke-linejoin="round"><path d="M2 3h3l3 13h11l3-9H6"/><circle cx="9" cy="21" r="1"/><circle cx="18" cy="21" r="1"/></g><defs><clipPath id="bodyclip1"><rect x="0.00" y="112.00" width="430.00" height="720.00" rx="0" fill="none"/></clipPath></defs><g clip-path="url(#bodyclip1)"><rect x="20.00" y="128.00" width="390.00" height="155.20" rx="22" fill="#DDEDFA"/><rect x="40.00" y="148.00" width="162.29" height="30.80" rx="8" fill="#DFD2EC"/><text x="47.00" y="166.88" font-family="Arial, Helvetica, sans-serif" font-size="12" font-weight="600" fill="#65416F" text-anchor="start">BEM-VINDA AO PETZONA</text><text x="40.00" y="218.50" font-family="Arial, Helvetica, sans-serif" font-size="30" font-weight="700" fill="#26364F" text-anchor="start">Olá, Tamiris!</text><text x="40.00" y="256.64" font-family="Arial, Helvetica, sans-serif" font-size="16" font-weight="400" fill="#596477" text-anchor="start">Mais tempo para cuidar de quem você ama.</text><rect x="20.00" y="303.20" width="390.00" height="52.00" rx="14" fill="#FFFFFF" stroke="#CAD2DF"/><g transform="translate(111.93 318.70) scale(0.87500)" fill="none" stroke="#26364F" stroke-width="1.65" stroke-linecap="round" stroke-linejoin="round"><circle cx="10" cy="10" r="6.5"/><path d="m15 15 6 6"/></g><text x="228.00" y="334.64" font-family="Arial, Helvetica, sans-serif" font-size="16" font-weight="600" fill="#26364F" text-anchor="middle">O que seu pet precisa?</text><rect x="20.00" y="375.20" width="189.00" height="52.00" rx="14" fill="#65416F"/><g transform="translate(64.47 390.70) scale(0.87500)" fill="none" stroke="#FFFFFF" stroke-width="1.65" stroke-linecap="round" stroke-linejoin="round"><path d="M4 7h16l1 15H3ZM8 7V5a4 4 0 0 1 8 0v2"/></g><text x="127.50" y="406.64" font-family="Arial, Helvetica, sans-serif" font-size="16" font-weight="600" fill="#FFFFFF" text-anchor="middle">Produtos</text><rect x="221.00" y="375.20" width="189.00" height="52.00" rx="14" fill="#DFD2EC"/><g transform="translate(266.95 390.70) scale(0.87500)" fill="#65416F" stroke="#65416F" stroke-width="1.65" stroke-linecap="round" stroke-linejoin="round"><ellipse cx="7" cy="7" rx="2.4" ry="3.1"/><ellipse cx="13" cy="5" rx="2.4" ry="3.1"/><ellipse cx="19" cy="8" rx="2.4" ry="3.1"/><ellipse cx="3" cy="13" rx="2" ry="2.7"/><path d="M7 16c1-6 7-7 10-2 6 8-1 8-5 6-5 3-9 1-5-4Z"/></g><text x="328.50" y="406.64" font-family="Arial, Helvetica, sans-serif" font-size="16" font-weight="600" fill="#65416F" text-anchor="middle">Serviços</text><text x="20.00" y="466.01" font-family="Arial, Helvetica, sans-serif" font-size="19" font-weight="700" fill="#26364F" text-anchor="start">Para todos os pets</text><rect x="20.00" y="493.80" width="122.00" height="91.60" rx="20" fill="#FFFFFF" stroke="#CAD2DF"/><g transform="translate(65.00 507.80) scale(1.33333)" fill="none" stroke="#65416F" stroke-width="1.65" stroke-linecap="round" stroke-linejoin="round"><path d="M7 7 3 4 1 13l5 3M17 7l4-3 2 9-5 3M6 8c0-6 12-6 12 0v8c0 8-12 8-12 0Z"/><path d="M9 11v1M15 11v1m-5 4 2 2 2-2m-2 2v2"/></g><text x="34.00" y="565.66" font-family="Arial, Helvetica, sans-serif" font-size="14" font-weight="600" fill="#26364F" text-anchor="start">Cães</text><rect x="154.00" y="493.80" width="122.00" height="91.60" rx="20" fill="#FFFFFF" stroke="#CAD2DF"/><g transform="translate(199.00 507.80) scale(1.33333)" fill="none" stroke="#65416F" stroke-width="1.65" stroke-linecap="round" stroke-linejoin="round"><path d="M4 10V2l6 5h4l6-5v8c5 16-21 16-16 0Z"/><path d="M8 13h1m6 0h1m-5 4h2M1 16l5 1m-5 3 5-1m12-2 5-1m-5 3 5 1"/></g><text x="168.00" y="565.66" font-family="Arial, Helvetica, sans-serif" font-size="14" font-weight="600" fill="#26364F" text-anchor="start">Gatos</text><rect x="288.00" y="493.80" width="122.00" height="91.60" rx="20" fill="#FFFFFF" stroke="#CAD2DF"/><g transform="translate(333.00 507.80) scale(1.33333)" fill="none" stroke="#65416F" stroke-width="1.65" stroke-linecap="round" stroke-linejoin="round"><path d="M6 17C-1 3 14-1 17 7l5 4-5 1v5l-9 4-5-1ZM8 13l5-3M9 21v2m5-3v3"/><circle cx="13" cy="6" r=".5"/></g><text x="302.00" y="565.66" font-family="Arial, Helvetica, sans-serif" font-size="14" font-weight="600" fill="#26364F" text-anchor="start">Aves</text><text x="20.00" y="624.21" font-family="Arial, Helvetica, sans-serif" font-size="19" font-weight="700" fill="#26364F" text-anchor="start">Queridinhos da rotina</text><rect x="20.00" y="652.00" width="189.00" height="215.20" rx="20" fill="#FFFFFF" stroke="#CAD2DF"/><rect x="32.00" y="664.00" width="165.00" height="108.00" rx="16" fill="#DDEDFA"/><g transform="translate(91.82 681.32) scale(1.89000)" fill="none" stroke="#65416F" stroke-width="1.65" stroke-linecap="round" stroke-linejoin="round"><path d="M3 12h18v7c0 5-18 5-18 0ZM3 12c0-4 18-4 18 0M10 10V4c0-4 5-4 5 0v2m-3 4V4m3 3v2"/></g><text x="114.50" y="750.56" font-family="Arial, Helvetica, sans-serif" font-size="12" font-weight="600" fill="#65416F" text-anchor="middle">Acessórios</text><text x="32.00" y="794.85" font-family="Arial, Helvetica, sans-serif" font-size="15" font-weight="600" fill="#26364F" text-anchor="start">Bebedouro automático</text><text x="32.00" y="826.82" font-family="Arial, Helvetica, sans-serif" font-size="18" font-weight="700" fill="#65416F" text-anchor="start">R$ 89,90</text><rect x="221.00" y="652.00" width="189.00" height="215.20" rx="20" fill="#FFFFFF" stroke="#CAD2DF"/><rect x="233.00" y="664.00" width="165.00" height="108.00" rx="16" fill="#DDEDFA"/><g transform="translate(292.82 681.32) scale(1.89000)" fill="none" stroke="#65416F" stroke-width="1.65" stroke-linecap="round" stroke-linejoin="round"><path d="M4 7h16l1 15H3ZM8 7V5a4 4 0 0 1 8 0v2"/></g><text x="315.50" y="750.56" font-family="Arial, Helvetica, sans-serif" font-size="12" font-weight="600" fill="#65416F" text-anchor="middle">Alimentação</text><text x="233.00" y="794.85" font-family="Arial, Helvetica, sans-serif" font-size="15" font-weight="600" fill="#26364F" text-anchor="start">Ração para cães</text><text x="233.00" y="815.85" font-family="Arial, Helvetica, sans-serif" font-size="15" font-weight="600" fill="#26364F" text-anchor="start">adultos</text><text x="233.00" y="847.82" font-family="Arial, Helvetica, sans-serif" font-size="18" font-weight="700" fill="#65416F" text-anchor="start">R$ 75,90</text><rect x="20.00" y="887.20" width="390.00" height="143.40" rx="20" fill="#DFD2EC"/><g transform="translate(36.00 912.90) scale(1.16667)" fill="none" stroke="#65416F" stroke-width="1.65" stroke-linecap="round" stroke-linejoin="round"><path d="M12 20C1 20 2 10 2 10s6 0 10 5c4-5 10-5 10-5s1 10-10 10Zm0-5C5 9 12 2 12 2s7 7 0 13Z"/></g><text x="76.00" y="920.03" font-family="Arial, Helvetica, sans-serif" font-size="17" font-weight="700" fill="#26364F" text-anchor="start">Seu pet merece um dia de carinho</text><text x="76.00" y="944.86" font-family="Arial, Helvetica, sans-serif" font-size="14" font-weight="400" fill="#596477" text-anchor="start">Conheça a diária do Spa Pet.</text><rect x="36.00" y="962.60" width="358.00" height="52.00" rx="14" fill="#DFD2EC"/><text x="215.00" y="994.04" font-family="Arial, Helvetica, sans-serif" font-size="16" font-weight="600" fill="#65416F" text-anchor="middle">Conhecer o Spa Pet</text></g><rect x="0.00" y="832.00" width="430.00" height="78.00" rx="0" fill="#FFFFFF"/><rect x="0.00" y="832.00" width="430.00" height="1.00" rx="0" fill="#CAD2DF"/><rect x="20.00" y="842.00" width="122.00" height="56.00" rx="12" fill="#DFD2EC"/><g transform="translate(70.00 848.00) scale(0.91667)" fill="none" stroke="#65416F" stroke-width="1.65" stroke-linecap="round" stroke-linejoin="round"><path d="m3 10 9-7 9 7v11h-6v-7H9v7H3Z"/></g><text x="81.00" y="885.89" font-family="Arial, Helvetica, sans-serif" font-size="11" font-weight="600" fill="#65416F" text-anchor="middle">Início</text><g transform="translate(200.00 848.00) scale(0.91667)" fill="none" stroke="#596477" stroke-width="1.65" stroke-linecap="round" stroke-linejoin="round"><path d="M4 7h16l1 15H3ZM8 7V5a4 4 0 0 1 8 0v2"/></g><text x="211.00" y="885.89" font-family="Arial, Helvetica, sans-serif" font-size="11" font-weight="400" fill="#596477" text-anchor="middle">Produtos</text><g transform="translate(330.00 848.00) scale(0.91667)" fill="#596477" stroke="#596477" stroke-width="1.65" stroke-linecap="round" stroke-linejoin="round"><ellipse cx="7" cy="7" rx="2.4" ry="3.1"/><ellipse cx="13" cy="5" rx="2.4" ry="3.1"/><ellipse cx="19" cy="8" rx="2.4" ry="3.1"/><ellipse cx="3" cy="13" rx="2" ry="2.7"/><path d="M7 16c1-6 7-7 10-2 6 8-1 8-5 6-5 3-9 1-5-4Z"/></g><text x="341.00" y="885.89" font-family="Arial, Helvetica, sans-serif" font-size="11" font-weight="400" fill="#596477" text-anchor="middle">Serviços</text><rect x="0.00" y="910.00" width="430.00" height="22.00" rx="0" fill="#FFFFFF"/><rect x="149.00" y="919.00" width="132.00" height="4.00" rx="3" fill="#26364F"/></svg>